<svg viewBox="0 0 100 100" xmlns="http://www.w3.org/2000/svg">
  <!-- Gray background for favicon visibility -->
  <rect width="100" height="100" fill="#4A5568"/>

  <!-- Main circle -->
  <circle cx="50" cy="45" r="35" fill="none" stroke="#D4A843" stroke-width="5"/>

  <!-- Arrow on circle -->
  <path d="M 72 22 L 82 12 L 82 22 M 82 12 L 72 12" fill="none" stroke="#D4A843" stroke-width="5" stroke-linecap="round" stroke-linejoin="round"/>
  <line x1="50" y1="45" x2="79" y2="15" stroke="#D4A843" stroke-width="5" stroke-linecap="round"/>

  <!-- Simplified bar chart -->
  <rect x="24" y="34" width="7" height="10" fill="#D4A843"/>
  <rect x="33" y="28" width="7" height="16" fill="#D4A843"/>
  <rect x="42" y="22" width="7" height="22" fill="#D4A843"/>

  <!-- Letter P -->
  <path d="M 28 52 L 28 72" stroke="#D4A843" stroke-width="6" stroke-linecap="round"/>
  <path d="M 28 52 Q 42 52 42 58 Q 42 64 28 64" fill="none" stroke="#D4A843" stroke-width="6" stroke-linecap="round"/>

  <!-- Letter E -->
  <path d="M 52 52 L 52 72 M 52 52 L 70 52 M 52 62 L 66 62 M 52 72 L 70 72" stroke="#D4A843" stroke-width="6" stroke-linecap="round"/>

  <!-- Crystal ball base -->
  <ellipse cx="50" cy="88" rx="22" ry="5" fill="none" stroke="#D4A843" stroke-width="4"/>
  <path d="M 32 83 Q 50 93 68 83" fill="none" stroke="#D4A843" stroke-width="4"/>
</svg>